<?xml version="1.0" encoding="utf-8"?>
<!-- Generator: Adobe Illustrator 24.0.1, SVG Export Plug-In . SVG Version: 6.00 Build 0)  -->
<svg version="1.1" id="Object" xmlns="http://www.w3.org/2000/svg" xmlns:xlink="http://www.w3.org/1999/xlink" x="0px" y="0px"
	 viewBox="0 0 1122 1122" style="enable-background:new 0 0 1122 1122;" xml:space="preserve">
<style type="text/css">
	.st0{fill:#3966A5;}
	.st1{fill:#C4C2C2;}
	.st2{fill:#C72B2C;}
	.st3{fill:#ECECEC;}
	.st4{fill:#F2CB30;}
	.st5{fill:#D66D2E;}
	.st6{fill:#B8B7B5;}
	.st7{fill:#DBDAD8;}
	.st8{fill:#CE3E3D;}
	.st9{fill:#2D5585;}
	.st10{fill:#B8252B;}
</style>
<g>
	<path id="XMLID_347_" class="st0" d="M496.3,718.2v23.2c0,11.1,9,20,20,20h89.4c11.1,0,20-9,20-20v-23.2H496.3z"/>
	<path id="XMLID_346_" class="st1" d="M561,102.8C434.7,264.5,443.7,540.1,443.7,540.1l-0.1,0v178.1h234.9l0-178.1h-0.1
		C678.3,540.1,687.3,264.5,561,102.8z"/>
	<path id="XMLID_345_" class="st2" d="M443.6,540.1c0,0-106.8,24.7-106.8,178.1v76.7h34.7c0,0,5.2-113.6,72.1-113.6V540.1z"/>
	<path id="XMLID_344_" class="st2" d="M678.4,540.1c0,0,106.8,24.7,106.8,178.1v76.7h-34.7c0,0-5.2-113.6-72.1-113.6V540.1z"/>
	<circle id="XMLID_341_" class="st3" cx="561" cy="446.2" r="78.6"/>
	
		<ellipse id="XMLID_340_" transform="matrix(0.7071 -0.7071 0.7071 0.7071 -151.1815 527.3691)" class="st0" cx="561" cy="446.2" rx="59.7" ry="59.7"/>
	<rect id="XMLID_338_" x="443.6" y="607.1" class="st3" width="234.9" height="26"/>
	<path id="XMLID_337_" class="st4" d="M605.7,761.4H561h-44.7c0,0-45.9,90.4,44.7,174.1C651.5,851.7,605.7,761.4,605.7,761.4z"/>
	<path id="XMLID_329_" class="st5" d="M590.9,761.4H561h-29.9c0,0-30.7,60.5,29.9,116.5C621.6,821.9,590.9,761.4,590.9,761.4z"/>
	<path class="st2" d="M655.2,319.1C638.5,245,609.9,165.4,561,102.8c-48.9,62.6-77.5,142.2-94.2,216.3H655.2z"/>
	<path class="st6" d="M678.4,540.1h-0.1c0,0,1.7-51.2-6.5-122.3c-47.9,192.1-139.7,270.5-191,300.5h197.7V540.1z"/>
	<path class="st7" d="M574.3,633.1l104.1,0v-26h-85.7C586.6,616.4,580.5,625,574.3,633.1z"/>
	<path class="st8" d="M482.4,308.5c0,0,25.7-127,78.6-186.6c0,0-46.2,93.3-53.7,186.6H482.4z"/>
	<path class="st9" d="M615,420.8c-11.5,28.1-31.8,69.4-69.2,83.2c4.8,1.3,9.9,1.9,15.1,1.9c33,0,59.7-26.7,59.7-59.7
		C620.7,437.1,618.7,428.5,615,420.8z"/>
	<path class="st9" d="M605.7,761.4c11.1,0,20-9,20-20v-23.2h0c0,0-38.9,33.4-116.5,41.9c2.2,0.8,4.6,1.3,7.1,1.3H605.7z"/>
	<path class="st10" d="M785.3,718.2c0-5.3-0.1-10.4-0.4-15.4c-9.2,32.8-22.6,61.8-35,84.4c0.5,4.8,0.6,7.7,0.6,7.7h34.7V718.2z"/>
</g>
</svg>
