<svg id="Calque_1" data-name="Calque 1" xmlns="http://www.w3.org/2000/svg" viewBox="0 0 397.5 48.6"><defs><style>.cls-1{fill:#fff;}</style></defs><title>SpaceX-Logo</title><path class="cls-1" d="M37.5,30.5H10.9V23.9H45.2c-.9-2.8-3.8-5.4-8.9-5.4H11.4c-5.7,0-9,2.1-9,6.7v4.9c0,4,3.4,6.3,8.4,6.3H37.7v7H1.5c.9,3.8,3.8,5.8,9,5.8H37.6c5.7,0,8.5-2.2,8.5-6.9V37.4C46.1,33.1,42.8,30.8,37.5,30.5Z" transform="translate(-1.5 -0.7)"/><path class="cls-1" d="M91.8,18.6H59V49.3h9.3V37.5H92.5c6.7,0,10.4-2.3,10.4-7.7V26.4C102.8,21.4,98.6,18.6,91.8,18.6Zm3,9.8c0,2.2-.4,3.4-4,3.4H68.3l.1-8h22c4,0,4.5,1.2,4.5,3.3v1.3Z" transform="translate(-1.5 -0.7)"/><polygon class="cls-1" points="128.4 16.6 122.8 23.5 132.3 36.6 112.5 36.6 107.6 41.8 136.2 41.8 141.1 48.6 152.1 48.6 128.4 16.6"/><path class="cls-1" d="M171.4,23.9h34.8c-.9-3.6-4.4-5.4-9.4-5.4h-26c-4.5,0-8.8,1.8-8.8,6.7V42.4c0,4.9,4.3,6.7,8.8,6.7h26.3c6,0,8.1-1.7,9.1-5.8H171.4V23.9Z" transform="translate(-1.5 -0.7)"/><polygon class="cls-1" points="226.8 42.8 226.8 33.4 245.5 33.4 245.5 28.2 217.4 28.2 217.4 48.6 258.9 48.6 258.9 42.8 226.8 42.8"/><rect class="cls-1" x="218.4" y="17.9" width="41.9" height="5.4"/><path class="cls-1" d="M287.6,18.6H273l17.2,12.6c2.5-1.7,5.4-3.5,8-5Z" transform="translate(-1.5 -0.7)"/><path class="cls-1" d="M308.8,34.3c-2.5,1.7-5,3.6-7.4,5.4l13,9.5h14.7L308.8,34.3Z" transform="translate(-1.5 -0.7)"/><path class="cls-1" d="M399,.7C319,5.3,282,39.5,273.7,47.6L272,49.2h14.8C326.8,9.1,384.3,2,399,.7Z" transform="translate(-1.5 -0.7)"/></svg>